<svg width="14" height="19" viewBox="0 0 14 19" fill="none" xmlns="http://www.w3.org/2000/svg">
<path d="M6.375 13.375H3.875C3.38055 13.375 2.8972 13.5216 2.48608 13.7963C2.07495 14.071 1.75452 14.4615 1.5653 14.9183C1.37608 15.3751 1.32657 15.8778 1.42304 16.3627C1.5195 16.8477 1.7576 17.2931 2.10723 17.6428C2.45687 17.9924 2.90232 18.2305 3.38728 18.327C3.87223 18.4234 4.37489 18.3739 4.83171 18.1847C5.28853 17.9955 5.67897 17.675 5.95368 17.2639C6.22838 16.8528 6.375 16.3695 6.375 15.875V13.375Z" stroke="#A6DA95" stroke-linecap="round" stroke-linejoin="round"/>
<path d="M6.375 12.125V7.125H3.875C3.21196 7.125 2.57607 7.38839 2.10723 7.85723C1.63839 8.32607 1.375 8.96196 1.375 9.625C1.375 10.288 1.63839 10.9239 2.10723 11.3928C2.57607 11.8616 3.21196 12.125 3.875 12.125H6.375Z" stroke="#C6A0F6" stroke-linecap="round" stroke-linejoin="round"/>
<path d="M6.375 5.875V0.875H3.875C3.21196 0.875 2.57607 1.13839 2.10723 1.60723C1.63839 2.07607 1.375 2.71196 1.375 3.375C1.375 4.03804 1.63839 4.67393 2.10723 5.14277C2.57607 5.61161 3.21196 5.875 3.875 5.875H6.375Z" stroke="#ED8796" stroke-linecap="round" stroke-linejoin="round"/>
<path d="M10.125 5.875C10.788 5.875 11.4239 5.61161 11.8928 5.14277C12.3616 4.67393 12.625 4.03804 12.625 3.375C12.625 2.71196 12.3616 2.07607 11.8928 1.60723C11.4239 1.13839 10.788 0.875 10.125 0.875H7.625V5.875H10.125Z" stroke="#F5A97F" stroke-linecap="round" stroke-linejoin="round"/>
<path d="M12.625 9.625C12.625 10.288 12.3616 10.9239 11.8928 11.3928C11.4239 11.8616 10.788 12.125 10.125 12.125C9.46196 12.125 8.82607 11.8616 8.35723 11.3928C7.88839 10.9239 7.625 10.288 7.625 9.625C7.625 8.96196 7.88839 8.32607 8.35723 7.85723C8.82607 7.38839 9.46196 7.125 10.125 7.125C10.788 7.125 11.4239 7.38839 11.8928 7.85723C12.3616 8.32607 12.625 8.96196 12.625 9.625Z" stroke="#91D7E3" stroke-linecap="round" stroke-linejoin="round"/>
</svg>
