<svg width="18" height="18" viewBox="0 0 18 18" fill="none" xmlns="http://www.w3.org/2000/svg">
<path d="M4.16659 0.666748H7.49992V2.33341H5.83325V4.00008H4.16659V0.666748ZM4.16659 9.00008H2.49992V4.00008H4.16659V9.00008ZM5.83325 10.6667H4.16659V9.00008H5.83325V10.6667ZM7.49992 12.3334V10.6667H5.83325V12.3334H2.49992V10.6667H0.833252V12.3334H2.49992V14.0001H5.83325V17.3334H7.49992V14.0001H9.16658V12.3334H7.49992ZM7.49992 12.3334V14.0001H5.83325V12.3334H7.49992ZM12.4999 2.33341V4.00008H7.49992V2.33341H12.4999ZM15.8333 4.00008H14.1666V2.33341H12.4999V0.666748H15.8333V4.00008ZM15.8333 9.00008V4.00008H17.4999V9.00008H15.8333ZM14.1666 10.6667V9.00008H15.8333V10.6667H14.1666ZM12.4999 12.3334V10.6667H14.1666V12.3334H12.4999ZM12.4999 14.0001H10.8333V12.3334H12.4999V14.0001ZM12.4999 14.0001H14.1666V17.3334H12.4999V14.0001Z" fill="black"/>
</svg>
