<svg xmlns="http://www.w3.org/2000/svg" width="1280" height="701.042" viewBox="0 0 1280 701.042">
    <g data-name="그룹 5773">
        <path data-name="사각형 9669" style="fill:#1d1d1d" d="M0 0h1280v701.042H0z"/>
        <path data-name="사각형 9670" transform="translate(394.099 164.877)" style="fill:#fff" d="M0 0h.947v.947H0z"/>
        <path data-name="사각형 9671" transform="translate(167.682 249.665)" style="fill:#fff" d="M0 0h.947v.947H0z"/>
        <path data-name="사각형 9672" transform="translate(384.152 508.293)" style="fill:#fff" d="M0 0h.947v.947H0z"/>
        <path data-name="사각형 9673" transform="translate(130.261 190.137)" style="fill:#fff" d="M0 0h.947v.947H0z"/>
        <path data-name="사각형 9674" transform="translate(317.363 235.61)" style="fill:#fff" d="M0 0h.947v.947H0z"/>
        <path data-name="사각형 9675" transform="translate(533.834 494.237)" style="fill:#fff" d="M0 0h.947v.947H0z"/>
        <path data-name="사각형 9676" transform="translate(602.625 285.346)" style="fill:#fff" d="M0 0h.947v.947H0z"/>
        <path data-name="사각형 9677" transform="translate(532.886 222.821)" style="fill:#fff" d="M0 0h.947v.947H0z"/>
        <path data-name="사각형 9678" transform="translate(837.095 264.031)" style="fill:#fff" d="M0 0h.947v.947H0z"/>
        <path data-name="사각형 9679" transform="translate(1075.567 321.383)" style="fill:#fff" d="M0 0h.947v.947H0z"/>
        <path data-name="사각형 9680" transform="translate(520.907 120.033)" style="fill:#fff" d="M0 0h.947v.947H0z"/>
        <path data-name="합치기 86" d="M1.421 1.895V.947H0V0h2.369v1.895z" transform="translate(439.098 202.771)" style="fill:#fff"/>
        <path data-name="사각형 9683" transform="rotate(29 -125.089 2452.09)" style="fill:#fff" d="M0 0h1.421v2.842H0z"/>
        <path data-name="사각형 9684" transform="rotate(29 -144.754 470.323)" style="fill:#fff" d="M0 0h.947v.947H0z"/>
        <path data-name="합치기 87" d="M1.421 1.895V.947H0V0h2.369v1.895z" transform="rotate(29 -202.184 547.002)" style="fill:#fff"/>
        <path data-name="사각형 9687" transform="scale(-1) rotate(20 740.343 -2060.36)" style="fill:#fff" d="M0 0h.709v.709H0z"/>
        <path data-name="사각형 9688" transform="scale(-1) rotate(20 948.46 -855.111)" style="fill:#fff" d="M0 0h.947v.947H0z"/>
        <path data-name="사각형 9689" transform="scale(-1) rotate(20 1573.69 -1598.27)" style="fill:#fff" d="M0 0h.947v.947H0z"/>
        <path data-name="사각형 9690" transform="scale(-1) rotate(20 886.272 -297.068)" style="fill:#fff" d="M0 0h.947v.947H0z"/>
        <path data-name="사각형 9691" transform="scale(-1) rotate(20 1511.5 -1040.226)" style="fill:#fff" d="M0 0h.947v.947H0z"/>
        <path data-name="사각형 9692" transform="scale(-1) rotate(20 1212.501 -339.333)" style="fill:#fff" d="M0 0h.947v.947H0z"/>
        <path data-name="사각형 9693" transform="scale(-1) rotate(20 1837.731 -1082.494)" style="fill:#fff" d="M0 0h.947v.947H0z"/>
        <path data-name="합치기 88" d="M1.421 1.895V.947H0V0h2.369v1.895z" transform="scale(-1) rotate(20 1009.151 -429.654)" style="fill:#fff"/>
        <path data-name="합치기 89" d="M1.421 1.895V.947H0V0h2.369v1.895z" transform="scale(-1) rotate(20 1634.381 -1172.815)" style="fill:#fff"/>
        <path data-name="사각형 9698" transform="rotate(35.02 92.8 1007.141)" style="fill:#fff" d="M0 0h1.421v2.842H0z"/>
        <path data-name="합치기 90" d="M1.421 1.895V.947H0V0h2.369v1.895z" transform="rotate(35.02 29.67 1149.804)" style="fill:#fff"/>
        <path data-name="사각형 9701" transform="translate(310.258 81.665)" style="fill:#fff" d="M0 0h.947v.947H0z"/>
        <path data-name="사각형 9702" transform="translate(813.777 38.56)" style="fill:#fff" d="M0 0h.947v.947H0z"/>
        <path data-name="사각형 9703" transform="translate(739.409 82.612)" style="fill:#fff" d="M0 0h.947v.947H0z"/>
        <path data-name="사각형 9704" transform="translate(785.356 120.98)" style="fill:#fff" d="M0 0h.947v.947H0z"/>
        <path data-name="사각형 9705" transform="translate(1024.198 240.763)" style="fill:#fff" d="M0 0h.947v.947H0z"/>
        <path data-name="사각형 9706" transform="translate(233.436 286.293)" style="fill:#fff" d="M0 0h.947v.947H0z"/>
        <path data-name="사각형 9707" transform="translate(449.906 544.921)" style="fill:#fff" d="M0 0h.947v.947H0z"/>
        <path data-name="사각형 9708" transform="translate(841.832 381.913)" style="fill:#fff" d="M0 0h.947v.947H0z"/>
        <path data-name="사각형 9709" transform="translate(316.416 322.33)" style="fill:#fff" d="M0 0h.947v.947H0z"/>
        <path data-name="사각형 9710" transform="translate(532.886 580.958)" style="fill:#fff" d="M0 0h.947v.947H0z"/>
        <path data-name="사각형 9711" transform="translate(117.472 85.454)" style="fill:#fff" d="M0 0h.947v.947H0z"/>
        <path data-name="사각형 9712" transform="translate(71.999 146.016)" style="fill:#fff" d="M0 0h.947v2.368H0z"/>
        <path data-name="사각형 9713" transform="translate(210.786 66.034)" style="fill:#fff" d="M0 0h.947v1.895H0z"/>
        <path data-name="사각형 9714" transform="matrix(.999 .052 -.052 .999 851.62 153.9)" style="fill:#fff" d="M0 0h.947v1.895H0z"/>
        <path data-name="사각형 9715" transform="translate(964.041 448.765)" style="fill:#fff" d="M0 0h.947v.947H0z"/>
        <path data-name="사각형 9716" transform="translate(885.884 432.659)" style="fill:#fff" d="M0 0h.947v2.368H0z"/>
        <path data-name="사각형 9717" transform="translate(382.257 392.396)" style="fill:#fff" d="M0 0h.947v.947H0z"/>
        <path data-name="사각형 9718" transform="translate(173.839 435.975)" style="fill:#fff" d="M0 0h.947v.947H0z"/>
        <path data-name="사각형 9719" transform="translate(390.31 694.603)" style="fill:#fff" d="M0 0h.947v.947H0z"/>
        <path data-name="사각형 9720" transform="translate(763.142 428.106)" style="fill:#fff" d="M0 0h.709v.709H0z"/>
        <path data-name="사각형 9721" transform="translate(652.835 449.238)" style="fill:#fff" d="M0 0h.947v.947H0z"/>
        <path data-name="합치기 91" d="M5.149 5.211V4.168h1.235V3.126h1.03V2.084h2.059v1.042H8.444v1.042H7.208v1.043zM0 5.211V4.168h1.236V3.126h1.03V2.084h2.059v1.042H3.3v1.042H2.059v1.043zm6.384-3.127V1.042h2.06v1.042zm-5.149 0V1.042H3.3v1.042zm3.914-1.042V0h2.059v1.042zM0 1.042V0h2.059v1.042z" transform="translate(711.433 348.896)" style="fill:#fff"/>
        <path data-name="합치기 92" d="M0 2.842V0h2.731v1.066H1.17v1.776zm5.461-.355h-2.73V0H3.9v1.421h1.561V0h1.17v2.487z" transform="translate(758.357 181.788)" style="fill:#fff"/>
        <path data-name="합치기 93" d="M0 1.895V0h1.755v.71h-1v1.185zm3.511-.237H1.755V0h.752v.947h1V0h.752v1.658z" transform="translate(288.943 424.414)" style="fill:#fff"/>
        <path data-name="합치기 94" d="M0 1.895V0h1.755v.71h-1v1.185zm3.511-.237H1.755V0h.752v.947h1V0h.752v1.658z" transform="translate(505.413 683.042)" style="fill:#fff"/>
        <path data-name="합치기 95" d="M0 2.842V0h2.536v1.066H1.087v1.776zm5.071-.355H2.536V0h1.086v1.421h1.449V0h1.087v2.487z" transform="translate(260.049 105.156)" style="fill:#fff"/>
        <path data-name="합치기 96" d="M0 9V7.875h.842V4.95h1.895v2.925h-.211V9zm1.895-4.05V3.825h1.894V4.95zM.842 3.825v-2.7H0V0h2.526v.9h.211v2.925z" transform="translate(1195.407 403.573)" style="fill:#fff"/>
        <path data-name="사각형 9757" transform="rotate(-135.97 451.991 171.695)" style="fill:#fff" d="M0 0h1.421v2.842H0z"/>
        <path data-name="사각형 9758" transform="rotate(-165 470.701 267.782)" style="fill:#fff" d="M0 0h.947v.947H0z"/>
        <path data-name="사각형 9759" transform="rotate(-165 413.998 226.312)" style="fill:#fff" d="M0 0h.947v.947H0z"/>
        <path data-name="사각형 9760" transform="rotate(-165 452.016 239.51)" style="fill:#fff" d="M0 0h.947v2.368H0z"/>
        <path data-name="합치기 97" d="M0 9V7.875h.842V4.95h1.895v2.925h-.211V9zm1.895-4.05V3.825h1.894V4.95zM.842 3.825v-2.7H0V0h2.526v.9h.211v2.925z" transform="rotate(-165 360.34 242.235)" style="fill:#fff"/>
        <path data-name="사각형 9766" transform="translate(1184.099 164.877)" style="fill:#fff" d="M0 0h.947v.947H0z"/>
        <path data-name="사각형 9767" transform="translate(920.261 190.137)" style="fill:#fff" d="M0 0h.947v.947H0z"/>
        <path data-name="사각형 9768" transform="translate(1107.363 235.61)" style="fill:#fff" d="M0 0h.947v.947H0z"/>
        <path data-name="사각형 9769" transform="rotate(29 250.078 1997.082)" style="fill:#fff" d="M0 0h.947v.947H0z"/>
        <path data-name="합치기 98" d="M1.421 1.895V.947H0V0h2.369v1.895z" transform="rotate(29 192.648 2073.761)" style="fill:#fff"/>
        <path data-name="사각형 9772" transform="translate(1100.258 81.665)" style="fill:#fff" d="M0 0h.947v.947H0z"/>
        <path data-name="사각형 9773" transform="translate(907.472 85.454)" style="fill:#fff" d="M0 0h.947v.947H0z"/>
        <path data-name="사각형 9774" transform="translate(1000.786 66.034)" style="fill:#fff" d="M0 0h.947v1.895H0z"/>
        <path data-name="합치기 99" d="M0 2.842V0h2.536v1.066H1.087v1.776zm5.071-.355H2.536V0h1.086v1.421h1.449V0h1.087v2.487z" transform="translate(1050.049 105.156)" style="fill:#fff"/>
        <path data-name="사각형 9780" transform="scale(-1) rotate(20 833.492 -1507.361)" style="fill:#fff" d="M0 0h.947v.947H0z"/>
        <path data-name="사각형 9781" transform="translate(463.436 286.293)" style="fill:#fff" d="M0 0h.947v.947H0z"/>
        <path data-name="사각형 9782" transform="translate(546.416 322.33)" style="fill:#fff" d="M0 0h.947v.947H0z"/>
        <path data-name="사각형 9783" transform="translate(612.257 392.396)" style="fill:#fff" d="M0 0h.947v.947H0z"/>
        <path data-name="사각형 9784" transform="translate(403.839 435.975)" style="fill:#fff" d="M0 0h.947v.947H0z"/>
        <path data-name="합치기 100" d="M0 1.895V0h1.755v.71h-1v1.185zm3.511-.237H1.755V0h.752v.947h1V0h.752v1.658z" transform="translate(518.943 424.414)" style="fill:#fff"/>
        <path data-name="사각형 9790" transform="translate(1084.152 458.293)" style="fill:#fff" d="M0 0h.947v.947H0z"/>
        <path data-name="사각형 9791" transform="scale(-1) rotate(20 1081.996 -3558.385)" style="fill:#fff" d="M0 0h.947v.947H0z"/>
        <path data-name="사각형 9792" transform="scale(-1) rotate(20 1019.806 -3000.342)" style="fill:#fff" d="M0 0h.947v.947H0z"/>
        <path data-name="사각형 9793" transform="scale(-1) rotate(20 1346.037 -3042.61)" style="fill:#fff" d="M0 0h.947v.947H0z"/>
        <path data-name="합치기 101" d="M1.421 1.895V.947H0V0h2.369v1.895z" transform="scale(-1) rotate(20 1142.686 -3132.93)" style="fill:#fff"/>
        <path data-name="사각형 9796" transform="translate(1149.906 494.921)" style="fill:#fff" d="M0 0h.947v.947H0z"/>
        <path data-name="사각형 9797" transform="translate(1090.31 644.603)" style="fill:#fff" d="M0 0h.947v.947H0z"/>
        <path data-name="합치기 102" d="M0 1.895V0h1.755v.71h-1v1.185zm3.511-.237H1.755V0h.752v.947h1V0h.752v1.658z" transform="translate(1205.413 633.042)" style="fill:#fff"/>
    </g>
</svg>
